<?xml version="1.0" standalone="no"?>
<!DOCTYPE svg PUBLIC "-//W3C//DTD SVG 20010904//EN"
 "http://www.w3.org/TR/2001/REC-SVG-20010904/DTD/svg10.dtd">
<svg version="1.0" xmlns="http://www.w3.org/2000/svg"
 width="2000.000000pt" height="500.000000pt" viewBox="0 0 2000.000000 500.000000"
 preserveAspectRatio="xMidYMid meet">

<g transform="translate(0.000000,500.000000) scale(0.100000,-0.100000)"
fill="#000000" stroke="none">
<path d="M1700 4192 c-8 -3 -43 -23 -78 -44 -264 -162 -754 -355 -1175 -464
-48 -12 -73 -24 -84 -40 -13 -20 -14 -124 -10 -796 4 -756 4 -775 26 -853 12
-44 29 -96 37 -115 9 -19 23 -51 32 -70 58 -129 260 -351 447 -491 100 -75
284 -202 347 -238 18 -10 128 -76 243 -146 122 -75 220 -128 235 -128 22 0
314 168 427 244 23 16 44 29 48 29 10 0 247 161 350 239 55 41 152 127 216
190 172 172 247 294 301 491 20 72 21 102 25 848 4 672 3 776 -10 796 -11 16
-36 28 -84 40 -185 48 -475 143 -659 216 -156 62 -409 183 -508 244 -80 48
-103 57 -126 48z m109 -159 c120 -66 310 -159 373 -184 29 -11 67 -26 83 -34
129 -56 376 -139 643 -215 l72 -21 0 -737 c0 -694 -1 -741 -20 -813 -40 -159
-120 -295 -255 -431 -171 -173 -369 -314 -804 -575 -177 -106 -177 -106 -204
-92 -25 13 -246 145 -352 209 -138 85 -342 225 -430 296 -258 209 -381 376
-436 594 -17 70 -19 122 -19 812 l0 737 43 11 c171 45 528 164 672 225 17 7
71 30 120 51 86 36 280 134 375 188 25 14 47 26 49 26 2 0 42 -21 90 -47z"/>
<path d="M1464 3735 c-14 -21 -15 -31 -6 -50 11 -24 15 -25 112 -25 l100 0 0
-79 0 -79 -67 -7 c-81 -8 -138 -20 -218 -47 -70 -24 -223 -96 -231 -110 -3 -5
-39 23 -80 62 -67 63 -78 70 -115 70 -38 0 -47 -7 -144 -101 -150 -145 -154
-173 -45 -284 l60 -60 -45 -87 c-88 -168 -120 -303 -119 -498 1 -208 40 -352
143 -535 191 -338 624 -559 1009 -515 461 53 814 357 929 802 22 88 26 125 27
248 1 195 -31 330 -119 498 l-45 87 60 60 c109 111 105 139 -45 284 -97 94
-106 101 -144 101 -37 0 -48 -7 -114 -70 -44 -41 -77 -66 -83 -60 -17 16 -168
88 -229 108 -81 27 -137 39 -217 47 l-68 7 0 79 0 79 100 0 c97 0 101 1 112
25 9 19 8 29 -6 50 l-16 25 -240 0 -240 0 -16 -25z m455 -356 c124 -30 227
-74 328 -141 272 -181 423 -464 423 -792 0 -131 -8 -190 -41 -293 -89 -274
-311 -506 -579 -604 -347 -126 -730 -45 -990 211 -151 147 -239 308 -279 508
-15 75 -14 285 3 362 71 331 287 585 604 709 56 22 162 48 227 55 61 6 253 -3
304 -15z m-914 -54 c25 -24 45 -48 45 -52 0 -5 -35 -43 -78 -86 l-79 -78 -47
45 c-31 29 -45 49 -40 57 7 12 146 157 152 158 1 1 23 -19 47 -44z m1555 -35
c44 -45 80 -84 80 -87 0 -3 -21 -26 -47 -50 l-46 -44 -79 78 c-43 43 -78 81
-78 86 0 6 80 94 88 96 2 1 39 -35 82 -79z"/>
<path d="M1599 3311 c-121 -17 -269 -76 -378 -150 -137 -92 -272 -269 -326
-426 -44 -128 -60 -351 -33 -462 58 -242 187 -432 378 -557 520 -339 1206 -55
1336 554 18 83 18 266 0 350 -83 393 -417 677 -814 694 -59 3 -132 1 -163 -3z
m291 -116 c86 -21 111 -30 170 -60 178 -89 325 -253 385 -430 95 -279 36 -571
-160 -784 -162 -176 -426 -274 -652 -242 -505 72 -802 550 -638 1026 38 109
91 192 179 281 111 110 216 168 386 213 55 14 268 12 330 -4z"/>
<path d="M1688 3139 c-14 -7 -18 -23 -18 -63 0 -46 3 -54 25 -66 21 -11 29
-11 50 0 22 12 25 20 25 66 0 42 -4 55 -19 64 -24 12 -41 12 -63 -1z"/>
<path d="M1226 2944 c-25 -25 -19 -61 15 -94 37 -34 59 -38 82 -12 25 28 21
55 -16 90 -37 36 -58 40 -81 16z"/>
<path d="M2132 2927 c-36 -37 -41 -66 -14 -90 26 -24 45 -21 81 13 34 33 40
69 15 94 -24 24 -47 19 -82 -17z"/>
<path d="M1940 2779 c-14 -5 -93 -78 -176 -161 l-152 -150 -27 46 c-42 71 -77
96 -137 96 -40 0 -59 -6 -86 -26 -36 -28 -62 -77 -62 -117 0 -25 138 -276 174
-315 45 -51 119 -67 174 -38 15 8 127 115 248 238 243 245 259 267 235 336
-17 48 -38 71 -78 88 -37 16 -77 17 -113 3z m78 -101 c7 -7 12 -19 12 -29 0
-19 -427 -449 -446 -449 -21 0 -39 25 -109 146 -50 87 -65 122 -61 140 5 17
13 24 29 24 18 0 33 -17 70 -79 55 -91 69 -105 99 -97 13 3 102 84 198 181 96
96 180 175 185 175 6 0 16 -5 23 -12z"/>
<path d="M1060 2492 c-29 -5 -40 -18 -40 -51 0 -31 26 -50 71 -51 40 0 69 24
69 57 0 36 -42 54 -100 45z"/>
<path d="M2315 2492 c-25 -5 -35 -20 -35 -51 0 -31 27 -50 70 -50 19 0 43 6
53 13 17 13 23 52 9 72 -8 13 -66 22 -97 16z"/>
<path d="M1237 2032 c-15 -15 -27 -38 -27 -49 0 -27 25 -53 51 -53 25 0 79 57
79 84 0 52 -61 62 -103 18z"/>
<path d="M2112 2048 c-20 -20 -13 -54 18 -87 33 -34 60 -39 84 -15 24 23 19
57 -12 87 -30 28 -70 35 -90 15z"/>
<path d="M1687 1872 c-11 -12 -17 -36 -17 -66 0 -40 4 -48 25 -58 19 -8 31 -8
50 0 22 10 25 18 25 60 0 72 -45 106 -83 64z"/>
<path d="M11285 3838 c-6 -17 -525 -2104 -525 -2112 0 -4 71 -5 157 -4 l157 3
263 1050 c144 578 262 1056 263 1063 0 9 -38 12 -155 12 -115 0 -157 -3 -160
-12z"/>
<path d="M13105 3838 c-5 -14 -525 -2108 -525 -2114 0 -3 71 -3 157 -2 l157 3
87 348 c48 192 89 350 92 353 2 2 42 -93 87 -213 46 -120 106 -279 135 -353
l51 -135 191 -3 191 -2 -169 422 c-93 232 -169 427 -169 433 0 5 155 161 346
345 l345 335 -178 3 -177 2 -291 -290 c-159 -159 -293 -290 -296 -290 -3 0 59
260 137 578 79 317 144 580 144 585 0 4 -70 7 -155 7 -115 0 -157 -3 -160 -12z"/>
<path d="M9675 3293 c-93 -12 -234 -72 -315 -136 -24 -20 -45 -35 -46 -34 -2
1 6 33 16 70 l19 67 -152 0 -152 0 -179 -717 c-99 -395 -185 -742 -192 -770
l-12 -53 158 0 158 0 130 528 131 527 74 71 c94 90 199 146 281 148 48 1 59
-3 83 -27 27 -26 28 -32 27 -115 -1 -76 -17 -149 -128 -592 -70 -278 -129
-513 -132 -522 -5 -17 7 -18 153 -18 l158 0 130 523 129 522 81 80 c55 55 101
90 145 111 167 81 259 37 246 -118 -3 -37 -65 -301 -136 -588 -72 -286 -130
-523 -130 -525 0 -3 71 -5 158 -5 l157 0 139 563 c134 537 140 567 140 667 1
58 -5 124 -12 147 -17 58 -68 122 -127 158 -47 29 -52 30 -169 30 -110 0 -127
-3 -189 -29 -85 -36 -171 -91 -231 -148 l-46 -45 -11 43 c-14 56 -69 118 -130
150 -44 22 -68 27 -169 38 -14 1 -38 1 -55 -1z"/>
<path d="M12130 3293 c-82 -8 -375 -45 -378 -48 -3 -3 -71 -263 -72 -274 0 -2
21 -1 48 2 26 3 101 13 167 22 229 29 367 17 394 -33 20 -38 13 -130 -19 -253
l-10 -36 -48 8 c-244 44 -424 19 -577 -81 -112 -73 -201 -188 -240 -311 -83
-264 -69 -430 45 -532 132 -119 358 -94 563 61 37 28 67 48 67 44 0 -4 -7 -32
-15 -62 -8 -30 -15 -61 -15 -67 0 -10 36 -13 149 -13 l149 0 143 573 c133 534
143 578 143 667 0 78 -4 105 -23 147 -44 98 -149 166 -276 178 -99 9 -159 12
-195 8z m60 -868 c4 -3 -4 -51 -18 -107 l-26 -103 -90 -90 c-101 -100 -176
-145 -257 -153 -87 -8 -138 53 -125 150 17 125 69 229 133 269 68 42 110 49
247 44 70 -3 132 -7 136 -10z"/>
<path d="M8130 3269 c-204 -53 -364 -199 -449 -410 -49 -121 -181 -668 -188
-777 -9 -138 13 -209 86 -283 66 -65 134 -93 276 -111 75 -10 117 -9 245 6 85
9 194 24 242 33 l88 16 31 101 c16 55 36 119 43 142 l13 40 -136 -24 c-179
-33 -447 -37 -498 -9 -71 38 -83 127 -40 292 l23 90 391 3 391 2 51 208 c28
114 54 241 57 282 14 168 -52 311 -173 374 -96 49 -314 62 -453 25z m235 -272
c29 -16 45 -35 59 -70 18 -43 19 -55 8 -125 -6 -42 -16 -94 -22 -114 l-11 -38
-229 0 c-178 0 -230 3 -230 13 0 26 40 168 55 197 23 44 83 109 119 127 49 25
76 31 146 32 50 1 74 -5 105 -22z"/>
</g>
</svg>
